<svg class="railroad-diagram" width="695.5" height="71" viewBox="0 0 695.5 71" xmlns="http://www.w3.org/2000/svg" xmlns:xlink="http://www.w3.org/1999/xlink">
<g transform="translate(.5 .5)">
<g>
<path d="M20 21v20m0 -10h20"></path>
</g>
<path d="M40 31h10"></path>
<g class="terminal ">
<path d="M50 31h0"></path>
<path d="M95.5 31h0"></path>
<rect x="50" y="20" width="45.5" height="22" rx="10" ry="10"></rect>
<text x="72.75" y="35">job</text>
</g>
<path d="M95.5 31h10"></path>
<path d="M105.5 31h10"></path>
<g class="non-terminal ">
<path d="M115.5 31h0"></path>
<path d="M144 31h0"></path>
<rect x="115.5" y="20" width="28.5" height="22"></rect>
<text x="129.75" y="35">(</text>
</g>
<path d="M144 31h10"></path>
<path d="M154 31h10"></path>
<g class="non-terminal ">
<path d="M164 31h0"></path>
<path d="M218 31h0"></path>
<rect x="164" y="20" width="54" height="22"></rect>
<text x="191" y="35">Term</text>
</g>
<path d="M218 31h10"></path>
<path d="M228 31h10"></path>
<g class="non-terminal ">
<path d="M238 31h0"></path>
<path d="M266.5 31h0"></path>
<rect x="238" y="20" width="28.5" height="22"></rect>
<text x="252.25" y="35">,</text>
</g>
<path d="M266.5 31h10"></path>
<path d="M276.5 31h10"></path>
<g>
<path d="M286.5 31h0"></path>
<path d="M531.5 31h0"></path>
<path d="M286.5 31h10"></path>
<g>
<path d="M296.5 31h0"></path>
<path d="M521.5 31h0"></path>
<g class="non-terminal ">
<path d="M296.5 31h0"></path>
<path d="M350.5 31h0"></path>
<rect x="296.5" y="20" width="54" height="22"></rect>
<text x="323.5" y="35">Term</text>
</g>
<path d="M350.5 31h10"></path>
<path d="M360.5 31h10"></path>
<g class="non-terminal ">
<path d="M370.5 31h0"></path>
<path d="M399 31h0"></path>
<rect x="370.5" y="20" width="28.5" height="22"></rect>
<text x="384.75" y="35">=</text>
</g>
<path d="M399 31h10"></path>
<path d="M409 31h10"></path>
<g class="non-terminal ">
<path d="M419 31h0"></path>
<path d="M473 31h0"></path>
<rect x="419" y="20" width="54" height="22"></rect>
<text x="446" y="35">Term</text>
</g>
<path d="M473 31h10"></path>
<path d="M483 31h10"></path>
<g class="non-terminal ">
<path d="M493 31h0"></path>
<path d="M521.5 31h0"></path>
<rect x="493" y="20" width="28.5" height="22"></rect>
<text x="507.25" y="35">;</text>
</g>
</g>
<path d="M521.5 31h10"></path>
<path d="M296.5 31a10 10 0 0 0 -10 10v0a10 10 0 0 0 10 10"></path>
<g>
<path d="M296.5 51h225"></path>
</g>
<path d="M521.5 51a10 10 0 0 0 10 -10v0a10 10 0 0 0 -10 -10"></path>
</g>
<path d="M531.5 31h10"></path>
<path d="M541.5 31h10"></path>
<g class="terminal ">
<path d="M551.5 31h0"></path>
<path d="M597 31h0"></path>
<rect x="551.5" y="20" width="45.5" height="22" rx="10" ry="10"></rect>
<text x="574.25" y="35">eor</text>
</g>
<path d="M597 31h10"></path>
<path d="M607 31h10"></path>
<g class="non-terminal ">
<path d="M617 31h0"></path>
<path d="M645.5 31h0"></path>
<rect x="617" y="20" width="28.5" height="22"></rect>
<text x="631.25" y="35">.</text>
</g>
<path d="M645.5 31h10"></path>
<path d="M 655.5 31 h 20 m 0 -10 v 20"></path>
</g>
<style>
	svg {
		background-color: hsl(30,20%,95%);
	}
	path {
		stroke-width: 3;
		stroke: black;
		fill: rgba(0,0,0,0);
	}
	text {
		font: bold 14px monospace;
		text-anchor: middle;
		white-space: pre;
	}
	text.diagram-text {
		font-size: 12px;
	}
	text.diagram-arrow {
		font-size: 16px;
	}
	text.label {
		text-anchor: start;
	}
	text.comment {
		font: italic 12px monospace;
	}
	g.non-terminal text {
		/&#42;font-style: italic;&#42;/
	}
	rect {
		stroke-width: 3;
		stroke: black;
		fill: hsl(120,100%,90%);
	}
	rect.group-box {
		stroke: gray;
		stroke-dasharray: 10 5;
		fill: none;
	}
	path.diagram-text {
		stroke-width: 3;
		stroke: black;
		fill: white;
		cursor: help;
	}
	g.diagram-text:hover path.diagram-text {
		fill: #eee;
	}</style>
</svg>
